<svg xmlns="http://www.w3.org/2000/svg" viewBox="0 0 211.95 55.66"><g id="Capa_2" data-name="Capa 2"><g id="Capa_1-2" data-name="Capa 1"><path d="M76.69,22.92a10.28,10.28,0,0,1-4.15-.73A6.1,6.1,0,0,1,70,20.27a4.42,4.42,0,0,1-.92-2.49.52.52,0,0,1,.16-.4.54.54,0,0,1,.4-.16H72a.85.85,0,0,1,.52.14,1.55,1.55,0,0,1,.31.36,2.62,2.62,0,0,0,.61,1,3.4,3.4,0,0,0,1.24.82,5.38,5.38,0,0,0,2,.32,5.22,5.22,0,0,0,2.86-.64,2,2,0,0,0,1-1.74A1.62,1.62,0,0,0,80,16.24a4.83,4.83,0,0,0-1.56-.85,25.88,25.88,0,0,0-2.78-.81,15.65,15.65,0,0,1-3.35-1.16,5,5,0,0,1-2-1.72,4.67,4.67,0,0,1-.68-2.64,4.65,4.65,0,0,1,.84-2.74,5.61,5.61,0,0,1,2.39-1.9,9.15,9.15,0,0,1,3.72-.69,9.3,9.3,0,0,1,3.07.47,6.86,6.86,0,0,1,2.21,1.22,5.73,5.73,0,0,1,1.34,1.63,3.75,3.75,0,0,1,.5,1.69.6.6,0,0,1-.15.39.52.52,0,0,1-.41.17H80.63a.89.89,0,0,1-.43-.11.77.77,0,0,1-.34-.4,2.24,2.24,0,0,0-1-1.41,4,4,0,0,0-2.27-.58,4.4,4.4,0,0,0-2.32.53A1.81,1.81,0,0,0,73.35,9a1.81,1.81,0,0,0,.44,1.24,3.68,3.68,0,0,0,1.42.87,26.59,26.59,0,0,0,2.57.8,18.43,18.43,0,0,1,3.7,1.17,4.89,4.89,0,0,1,2.11,1.69,4.73,4.73,0,0,1,.66,2.6,4.81,4.81,0,0,1-.94,3,6,6,0,0,1-2.65,1.9A10.79,10.79,0,0,1,76.69,22.92Z" transform="translate(0 -0.07)"/><path d="M91,22.92a5.56,5.56,0,0,1-2.5-.55,4.5,4.5,0,0,1-1.77-1.46,3.45,3.45,0,0,1-.66-2.07,3.52,3.52,0,0,1,1.51-3,8.84,8.84,0,0,1,4-1.48l3.66-.53V13.3a2.48,2.48,0,0,0-.56-1.73A2.53,2.53,0,0,0,92.76,11a2.82,2.82,0,0,0-1.56.39,2.43,2.43,0,0,0-.9,1,.66.66,0,0,1-.61.34h-2.1a.54.54,0,0,1-.44-.16.58.58,0,0,1-.15-.42,2.64,2.64,0,0,1,.35-1,3.89,3.89,0,0,1,1-1.19,5.92,5.92,0,0,1,1.79-1,7.54,7.54,0,0,1,2.63-.4,8.66,8.66,0,0,1,2.84.41,4.9,4.9,0,0,1,1.85,1.11,4.17,4.17,0,0,1,1,1.62,6.18,6.18,0,0,1,.32,2V22a.62.62,0,0,1-.19.46.63.63,0,0,1-.45.18H96a.63.63,0,0,1-.47-.18.69.69,0,0,1-.17-.46V21a4.13,4.13,0,0,1-.93.94,5.17,5.17,0,0,1-1.43.72A6.2,6.2,0,0,1,91,22.92Zm.91-2.53a3.51,3.51,0,0,0,1.69-.4,2.82,2.82,0,0,0,1.2-1.24,4.47,4.47,0,0,0,.44-2.12v-.56l-2.66.43a5.86,5.86,0,0,0-2.35.77,1.57,1.57,0,0,0-.77,1.31,1.48,1.48,0,0,0,.36,1,2.13,2.13,0,0,0,.92.61A3.51,3.51,0,0,0,91.93,20.39Z" transform="translate(0 -0.07)"/><path d="M102.86,22.65a.62.62,0,0,1-.64-.64V9.43A.64.64,0,0,1,102.4,9a.66.66,0,0,1,.46-.19H105a.66.66,0,0,1,.46.19.64.64,0,0,1,.18.45v1.1a5.42,5.42,0,0,1,4.45-2,5.3,5.3,0,0,1,2.83.73,4.84,4.84,0,0,1,1.85,2.07,7.14,7.14,0,0,1,.65,3.2V22a.62.62,0,0,1-.63.64h-2.35a.61.61,0,0,1-.45-.18.62.62,0,0,1-.19-.46V14.69a3.57,3.57,0,0,0-.76-2.43,2.74,2.74,0,0,0-2.2-.88,2.88,2.88,0,0,0-2.21.88,3.41,3.41,0,0,0-.83,2.43V22a.62.62,0,0,1-.64.64Z" transform="translate(0 -0.07)"/><path d="M125,22.65a5.79,5.79,0,0,1-2.69-.56,3.48,3.48,0,0,1-1.62-1.66,6.29,6.29,0,0,1-.54-2.76V11.62H118a.62.62,0,0,1-.46-.19.61.61,0,0,1-.18-.45V9.43a.64.64,0,0,1,.18-.45.66.66,0,0,1,.46-.19h2.1V4.37a.61.61,0,0,1,.18-.45.58.58,0,0,1,.46-.19h2.16a.65.65,0,0,1,.64.64V8.79h3.33a.66.66,0,0,1,.46.19.64.64,0,0,1,.18.45V11a.61.61,0,0,1-.18.45.62.62,0,0,1-.46.19h-3.33V17.4a3.18,3.18,0,0,0,.39,1.71,1.44,1.44,0,0,0,1.34.61h1.84a.66.66,0,0,1,.46.19.61.61,0,0,1,.18.45V22a.62.62,0,0,1-.64.64Z" transform="translate(0 -0.07)"/><path d="M130.66,6.5a.59.59,0,0,1-.64-.64V3.94a.62.62,0,0,1,.64-.64h2.42a.66.66,0,0,1,.48.19.61.61,0,0,1,.19.45V5.86a.6.6,0,0,1-.19.47.64.64,0,0,1-.48.17Zm.1,16.15a.63.63,0,0,1-.45-.18.66.66,0,0,1-.19-.46V9.43a.65.65,0,0,1,.19-.45.64.64,0,0,1,.45-.19H133a.61.61,0,0,1,.46.19.64.64,0,0,1,.18.45V22a.65.65,0,0,1-.18.46.6.6,0,0,1-.46.18Z" transform="translate(0 -0.07)"/><path d="M141.18,22.92a5.53,5.53,0,0,1-2.5-.55,4.5,4.5,0,0,1-1.77-1.46,3.45,3.45,0,0,1-.66-2.07,3.52,3.52,0,0,1,1.51-3,8.84,8.84,0,0,1,4-1.48l3.66-.53V13.3a2.48,2.48,0,0,0-.56-1.73,2.53,2.53,0,0,0-1.92-.62,2.82,2.82,0,0,0-1.56.39,2.43,2.43,0,0,0-.9,1,.66.66,0,0,1-.61.34h-2.1a.54.54,0,0,1-.44-.16.58.58,0,0,1-.15-.42,2.64,2.64,0,0,1,.35-1,3.89,3.89,0,0,1,1-1.19,6,6,0,0,1,1.78-1,7.64,7.64,0,0,1,2.64-.4,8.66,8.66,0,0,1,2.84.41,5,5,0,0,1,1.85,1.11,4.17,4.17,0,0,1,1,1.62,6.18,6.18,0,0,1,.32,2V22a.66.66,0,0,1-.19.46.61.61,0,0,1-.45.18h-2.16a.63.63,0,0,1-.47-.18.69.69,0,0,1-.17-.46V21a4.13,4.13,0,0,1-.93.94,5.17,5.17,0,0,1-1.43.72A6.2,6.2,0,0,1,141.18,22.92Zm.91-2.53a3.51,3.51,0,0,0,1.69-.4,2.82,2.82,0,0,0,1.2-1.24,4.47,4.47,0,0,0,.44-2.12v-.56l-2.66.43a5.86,5.86,0,0,0-2.35.77,1.57,1.57,0,0,0-.77,1.31,1.48,1.48,0,0,0,.36,1,2.13,2.13,0,0,0,.92.61A3.51,3.51,0,0,0,142.09,20.39Z" transform="translate(0 -0.07)"/><path d="M158.64,28.52a8.58,8.58,0,0,1-3.2-.51,5.93,5.93,0,0,1-2-1.22,4.65,4.65,0,0,1-1-1.43,3.58,3.58,0,0,1-.34-1.11.53.53,0,0,1,.18-.46.59.59,0,0,1,.46-.2h2.32a.71.71,0,0,1,.43.12.89.89,0,0,1,.26.44,5.37,5.37,0,0,0,.43.74,2,2,0,0,0,.81.68,3.33,3.33,0,0,0,1.51.28,4.47,4.47,0,0,0,1.7-.29,2,2,0,0,0,1.06-1,4.21,4.21,0,0,0,.36-1.92V20.84A4.8,4.8,0,0,1,160,22.09a5.7,5.7,0,0,1-2.47.48,6.07,6.07,0,0,1-2.48-.46,4.7,4.7,0,0,1-1.73-1.31,5.86,5.86,0,0,1-1.05-2,9.92,9.92,0,0,1-.42-2.54c0-.48,0-1,0-1.44a9.67,9.67,0,0,1,.41-2.47,5.8,5.8,0,0,1,1.05-2A4.9,4.9,0,0,1,155,9a5.9,5.9,0,0,1,2.48-.48,5.24,5.24,0,0,1,2.56.57,5.58,5.58,0,0,1,1.71,1.43V9.46A.68.68,0,0,1,162,9a.66.66,0,0,1,.46-.19h2.16A.65.65,0,0,1,165,9a.68.68,0,0,1,.18.48l0,12.85a7.05,7.05,0,0,1-.72,3.3,5,5,0,0,1-2.17,2.15A8.09,8.09,0,0,1,158.64,28.52Zm-.13-8.77a3,3,0,0,0,1.76-.48,2.88,2.88,0,0,0,1-1.25,4.93,4.93,0,0,0,.38-1.58c0-.23,0-.52,0-.88s0-.64,0-.85a4.75,4.75,0,0,0-.38-1.58,3,3,0,0,0-1-1.26,3.41,3.41,0,0,0-3.52,0,2.65,2.65,0,0,0-.95,1.3,6.79,6.79,0,0,0-.33,1.75,7.17,7.17,0,0,0,0,1.31A7,7,0,0,0,155.8,18a2.58,2.58,0,0,0,.95,1.29A2.94,2.94,0,0,0,158.51,19.75Z" transform="translate(0 -0.07)"/><path d="M174.93,22.92a7.78,7.78,0,0,1-3.59-.75,5.1,5.1,0,0,1-2.21-2.1,7.23,7.23,0,0,1-.87-3.17c0-.32,0-.71,0-1.18s0-.85,0-1.17a6.92,6.92,0,0,1,.9-3.18,5.39,5.39,0,0,1,2.23-2.1,8.81,8.81,0,0,1,7.07,0,5.41,5.41,0,0,1,2.24,2.1,7,7,0,0,1,.89,3.18q0,.48,0,1.17c0,.47,0,.86,0,1.18a7.23,7.23,0,0,1-.87,3.17,5,5,0,0,1-2.21,2.1A7.74,7.74,0,0,1,174.93,22.92Zm0-2.64a2.73,2.73,0,0,0,2.18-.89,4.18,4.18,0,0,0,.85-2.63c0-.26,0-.61,0-1s0-.77,0-1a4.22,4.22,0,0,0-.85-2.62,3.1,3.1,0,0,0-4.37,0,4.28,4.28,0,0,0-.85,2.62c0,.26,0,.61,0,1s0,.78,0,1a4.24,4.24,0,0,0,.85,2.63A2.75,2.75,0,0,0,174.93,20.28Z" transform="translate(0 -0.07)"/><path d="M70.85,55.46a.65.65,0,0,1-.64-.64V37.47A.62.62,0,0,1,70.4,37a.58.58,0,0,1,.45-.19h7.73a8.26,8.26,0,0,1,3.52.65,4.55,4.55,0,0,1,2,1.8,5.39,5.39,0,0,1,.65,2.67,4.11,4.11,0,0,1-.36,1.77,3.89,3.89,0,0,1-.88,1.24,5.29,5.29,0,0,1-1,.75,4.66,4.66,0,0,1,1.83,1.6,4.39,4.39,0,0,1,.8,2.66,5.59,5.59,0,0,1-.72,2.85,4.89,4.89,0,0,1-2.13,2,7.75,7.75,0,0,1-3.49.71Zm3.06-11H78.1a3,3,0,0,0,2.12-.68,2.34,2.34,0,0,0,.7-1.77,2.22,2.22,0,0,0-.7-1.75,3.1,3.1,0,0,0-2.12-.62H73.91Zm0,8.18h4.45a2.9,2.9,0,0,0,2.19-.78,2.83,2.83,0,0,0,0-3.85,2.91,2.91,0,0,0-2.18-.78H73.91Z" transform="translate(0 -0.07)"/><path d="M94.3,55.72A7.74,7.74,0,0,1,90.72,55a5.13,5.13,0,0,1-2.21-2.11,7.2,7.2,0,0,1-.87-3.17q0-.48,0-1.17t0-1.17a7.09,7.09,0,0,1,.89-3.19,5.39,5.39,0,0,1,2.24-2.09,8.68,8.68,0,0,1,7.06,0,5.33,5.33,0,0,1,2.24,2.09,7.09,7.09,0,0,1,.9,3.19c0,.32,0,.71,0,1.17s0,.85,0,1.17a7.33,7.33,0,0,1-.87,3.17A5.18,5.18,0,0,1,97.89,55,7.79,7.79,0,0,1,94.3,55.72Zm0-2.63a2.74,2.74,0,0,0,2.19-.9,4.21,4.21,0,0,0,.85-2.62c0-.27,0-.61,0-1s0-.78,0-1a4.23,4.23,0,0,0-.85-2.61A2.72,2.72,0,0,0,94.3,44a2.68,2.68,0,0,0-2.18.91,4.23,4.23,0,0,0-.86,2.61c0,.26,0,.61,0,1s0,.77,0,1a4.21,4.21,0,0,0,.86,2.62A2.71,2.71,0,0,0,94.3,53.09Z" transform="translate(0 -0.07)"/><path d="M104.59,55.46a.65.65,0,0,1-.64-.64V42.24a.65.65,0,0,1,.64-.64h2.19a.61.61,0,0,1,.45.19.62.62,0,0,1,.19.45v1.09a5.46,5.46,0,0,1,4.45-2,5.38,5.38,0,0,1,2.82.73,4.84,4.84,0,0,1,1.85,2.07,7.13,7.13,0,0,1,.66,3.2v7.49a.62.62,0,0,1-.19.45.6.6,0,0,1-.45.19h-2.35a.65.65,0,0,1-.64-.64V47.49a3.59,3.59,0,0,0-.76-2.43,2.76,2.76,0,0,0-2.2-.88,2.91,2.91,0,0,0-2.21.88,3.42,3.42,0,0,0-.82,2.43v7.33a.62.62,0,0,1-.19.45.61.61,0,0,1-.45.19Z" transform="translate(0 -0.07)"/><path d="M127.64,55.46a.63.63,0,0,1-.63-.64V37.47a.65.65,0,0,1,.18-.48.61.61,0,0,1,.45-.19h6.91a8,8,0,0,1,5.09,1.49,5.26,5.26,0,0,1,1.86,4.35,5.34,5.34,0,0,1-1,3.28,5.44,5.44,0,0,1-2.6,1.89l3.89,6.8a.55.55,0,0,1,.08.29.51.51,0,0,1-.17.4.59.59,0,0,1-.39.16h-2.42a.93.93,0,0,1-.69-.24,2.28,2.28,0,0,1-.38-.48l-3.44-6.32h-3.7v6.4a.64.64,0,0,1-.17.45.61.61,0,0,1-.47.19Zm3.07-10.05h3.76a3.47,3.47,0,0,0,2.42-.73,2.65,2.65,0,0,0,.8-2.07,2.78,2.78,0,0,0-.78-2.09,3.4,3.4,0,0,0-2.44-.76h-3.76Z" transform="translate(0 -0.07)"/><path d="M150.59,55.72A7.74,7.74,0,0,1,147,55a5.13,5.13,0,0,1-2.21-2.11,7.2,7.2,0,0,1-.87-3.17q0-.48,0-1.17t0-1.17a7.09,7.09,0,0,1,.89-3.19,5.39,5.39,0,0,1,2.24-2.09,8.68,8.68,0,0,1,7.06,0,5.33,5.33,0,0,1,2.24,2.09,7.09,7.09,0,0,1,.9,3.19c0,.32,0,.71,0,1.17s0,.85,0,1.17a7.33,7.33,0,0,1-.87,3.17A5.18,5.18,0,0,1,154.18,55,7.79,7.79,0,0,1,150.59,55.72Zm0-2.63a2.74,2.74,0,0,0,2.19-.9,4.21,4.21,0,0,0,.85-2.62c0-.27,0-.61,0-1s0-.78,0-1a4.23,4.23,0,0,0-.85-2.61,2.72,2.72,0,0,0-2.19-.91,2.68,2.68,0,0,0-2.18.91,4.23,4.23,0,0,0-.86,2.61c0,.26,0,.61,0,1s0,.77,0,1a4.21,4.21,0,0,0,.86,2.62A2.71,2.71,0,0,0,150.59,53.09Z" transform="translate(0 -0.07)"/><path d="M160.91,55.46a.62.62,0,0,1-.46-.19.61.61,0,0,1-.18-.45V37.17a.64.64,0,0,1,.18-.45.66.66,0,0,1,.46-.19h2.21a.62.62,0,0,1,.45.19.61.61,0,0,1,.19.45V54.82a.65.65,0,0,1-.64.64Z" transform="translate(0 -0.07)"/><path d="M171.33,55.72a5.71,5.71,0,0,1-2.51-.54,4.67,4.67,0,0,1-1.77-1.47,3.43,3.43,0,0,1-.65-2.06,3.52,3.52,0,0,1,1.5-3,8.88,8.88,0,0,1,4-1.47l3.65-.54V46.1a2.1,2.1,0,0,0-2.48-2.34,2.91,2.91,0,0,0-1.56.38,2.34,2.34,0,0,0-.89,1,.68.68,0,0,1-.61.35h-2.11a.59.59,0,0,1-.44-.16.61.61,0,0,1-.15-.43,2.88,2.88,0,0,1,.35-1,3.86,3.86,0,0,1,1-1.18,5.93,5.93,0,0,1,1.79-1,7.64,7.64,0,0,1,2.64-.4,8.32,8.32,0,0,1,2.83.42,4.81,4.81,0,0,1,1.86,1.1,4.19,4.19,0,0,1,1,1.63,6.12,6.12,0,0,1,.32,2v8.37a.65.65,0,0,1-.64.64h-2.16a.58.58,0,0,1-.46-.19.61.61,0,0,1-.18-.45v-1a3.93,3.93,0,0,1-.93.94,4.68,4.68,0,0,1-1.43.72A6.18,6.18,0,0,1,171.33,55.72Zm.9-2.53a3.55,3.55,0,0,0,1.7-.4,2.88,2.88,0,0,0,1.2-1.24,4.57,4.57,0,0,0,.44-2.12v-.55l-2.67.42a5.86,5.86,0,0,0-2.35.77,1.58,1.58,0,0,0-.77,1.31,1.48,1.48,0,0,0,.36,1,2.1,2.1,0,0,0,.92.61A3.31,3.31,0,0,0,172.23,53.19Z" transform="translate(0 -0.07)"/><path d="M183.16,55.46a.65.65,0,0,1-.64-.64V42.24a.65.65,0,0,1,.64-.64h2.19a.6.6,0,0,1,.45.19.62.62,0,0,1,.19.45v1.09a5.46,5.46,0,0,1,4.45-2,5.38,5.38,0,0,1,2.82.73,4.92,4.92,0,0,1,1.86,2.07,7.27,7.27,0,0,1,.65,3.2v7.49a.65.65,0,0,1-.64.64h-2.35a.6.6,0,0,1-.45-.19.62.62,0,0,1-.19-.45V47.49a3.59,3.59,0,0,0-.76-2.43,2.76,2.76,0,0,0-2.2-.88,2.91,2.91,0,0,0-2.21.88,3.42,3.42,0,0,0-.82,2.43v7.33a.62.62,0,0,1-.19.45.6.6,0,0,1-.45.19Z" transform="translate(0 -0.07)"/><path d="M204.3,55.72a6,6,0,0,1-2.44-.46,4.69,4.69,0,0,1-1.75-1.32,6.22,6.22,0,0,1-1.06-2,9.64,9.64,0,0,1-.43-2.55q0-.48,0-.87c0-.25,0-.54,0-.86a9.67,9.67,0,0,1,.41-2.48,6.06,6.06,0,0,1,1.07-2,4.8,4.8,0,0,1,1.76-1.35,5.81,5.81,0,0,1,2.44-.48,5.47,5.47,0,0,1,2.44.5,5.14,5.14,0,0,1,1.66,1.26V37.17a.64.64,0,0,1,.18-.45.61.61,0,0,1,.46-.19h2.27a.64.64,0,0,1,.45.19.65.65,0,0,1,.19.45V54.82a.62.62,0,0,1-.19.45.6.6,0,0,1-.45.19H209.2a.58.58,0,0,1-.46-.19.61.61,0,0,1-.18-.45v-1a5.18,5.18,0,0,1-1.69,1.36A5.47,5.47,0,0,1,204.3,55.72Zm1-2.85a2.93,2.93,0,0,0,1.79-.5,3.12,3.12,0,0,0,1-1.3,4.73,4.73,0,0,0,.34-1.61c0-.32,0-.66,0-1s0-.7,0-1a3.91,3.91,0,0,0-.37-1.53,3.15,3.15,0,0,0-1-1.22,2.93,2.93,0,0,0-1.74-.48,2.88,2.88,0,0,0-1.77.5,2.78,2.78,0,0,0-.94,1.29,5.73,5.73,0,0,0-.35,1.76c0,.53,0,1.06,0,1.6a5.79,5.79,0,0,0,.35,1.76,2.78,2.78,0,0,0,.94,1.29A2.88,2.88,0,0,0,205.28,52.87Z" transform="translate(0 -0.07)"/><rect width="13.91" height="55.64" rx="6.96"/><path d="M27.82,3.77A3.26,3.26,0,0,1,31.07,7V48.75a3.25,3.25,0,1,1-6.49,0V7a3.25,3.25,0,0,1,3.24-3.25m0-3.7h0a7,7,0,0,0-6.95,7V48.75a7,7,0,0,0,7,7h0a7,7,0,0,0,7-7V7a7,7,0,0,0-7-6.95Z" transform="translate(0 -0.07)"/><path d="M48.69,3.77A3.25,3.25,0,0,1,51.93,7V48.75a3.25,3.25,0,1,1-6.49,0V7a3.26,3.26,0,0,1,3.25-3.25m0-3.7h0a7,7,0,0,0-7,7V48.75a7,7,0,0,0,7,7h0a7,7,0,0,0,7-7V7a7,7,0,0,0-7-6.95Z" transform="translate(0 -0.07)"/></g></g></svg>