<svg xmlns="http://www.w3.org/2000/svg" xmlns:xlink="http://www.w3.org/1999/xlink" viewBox="0 0 5966.22 3254.3"><defs><style>.cls-1{fill:none;}.cls-2{fill:#f2f2f2;}.cls-3{fill:url(#patron1);}</style><pattern id="patron1" data-name="patron1" width="418.6" height="676.13" patternUnits="userSpaceOnUse" viewBox="0 0 418.6 676.13"><rect class="cls-1" width="418.6" height="676.13"/><path class="cls-2" d="M164.14,663.59a14.08,14.08,0,0,0-14.07,14.06V858a14.07,14.07,0,0,0,28.13,0V677.65a14.08,14.08,0,0,0-14.06-14.06m0-16a30.06,30.06,0,0,1,30.06,30.06V858a30.06,30.06,0,0,1-30.06,30.06h0A30.06,30.06,0,0,1,134.07,858V677.65a30.06,30.06,0,0,1,30.07-30.06Z"/><path class="cls-2" d="M373.44,325.52a14.08,14.08,0,0,0-14.07,14.06V520a14.07,14.07,0,0,0,28.13,0V339.58a14.08,14.08,0,0,0-14.06-14.06m0-16a30.06,30.06,0,0,1,30.06,30.06V520A30.06,30.06,0,0,1,373.44,550h0A30.06,30.06,0,0,1,343.37,520V339.58a30.06,30.06,0,0,1,30.07-30.06Z"/><path class="cls-2" d="M209.3,670.72h0a30.81,30.81,0,0,1,30.81-30.81H425a30.81,30.81,0,0,1,30.81,30.81h0A30.8,30.8,0,0,1,425,701.53H240.11A30.8,30.8,0,0,1,209.3,670.72Z"/><circle class="cls-2" cx="373.44" cy="594.35" r="30.06"/><path class="cls-2" d="M269.42,523.1a44.13,44.13,0,1,0,44.13,44.12,44.17,44.17,0,0,0-44.13-44.12m0-16a60.13,60.13,0,1,1-60.12,60.12,60.13,60.13,0,0,1,60.12-60.12Z"/><rect class="cls-2" x="53.66" y="581.29" width="60.12" height="240.49" rx="30.06"/><path class="cls-2" d="M-209.3,670.72h0a30.81,30.81,0,0,1,30.81-30.81H6.36a30.81,30.81,0,0,1,30.81,30.81h0A30.8,30.8,0,0,1,6.36,701.53H-178.49A30.8,30.8,0,0,1-209.3,670.72Z"/><circle class="cls-2" cx="168.28" cy="589.13" r="30.06"/><circle class="cls-2" cx="60.77" cy="514.54" r="60.12"/><path class="cls-2" d="M168.28,471A22.06,22.06,0,1,0,190.34,493,22.08,22.08,0,0,0,168.28,471m0-8A30.06,30.06,0,1,1,138.22,493,30.06,30.06,0,0,1,168.28,463Z"/><rect class="cls-2" x="262.96" y="243.22" width="60.12" height="240.49" rx="30.06"/><path class="cls-2" d="M164.14-12.55A14.08,14.08,0,0,0,150.07,1.52V181.88a14.07,14.07,0,1,0,28.13,0V1.52a14.08,14.08,0,0,0-14.06-14.07m0-16A30.06,30.06,0,0,1,194.2,1.52V181.88A30.06,30.06,0,0,1,164.14,212h0a30.07,30.07,0,0,1-30.07-30.07V1.52a30.07,30.07,0,0,1,30.07-30.07Z"/><path class="cls-2" d="M0,332.66H0a30.8,30.8,0,0,1,30.81-30.81H215.66a30.8,30.8,0,0,1,30.81,30.81h0a30.8,30.8,0,0,1-30.81,30.8H30.81A30.8,30.8,0,0,1,0,332.66Z"/><path class="cls-2" d="M215.66,396.4H30.81a14.41,14.41,0,1,0,0,28.82H215.66a14.41,14.41,0,0,0,0-28.82m0-16.4a30.81,30.81,0,0,1,0,61.62H30.81a30.81,30.81,0,0,1,0-61.62Z"/><circle class="cls-2" cx="164.14" cy="256.29" r="30.06"/><circle class="cls-2" cx="377.58" cy="251.07" r="30.06"/><circle class="cls-2" cx="270.07" cy="176.47" r="60.12"/><path class="cls-2" d="M60.12,185a44.13,44.13,0,1,0,44.13,44.13A44.18,44.18,0,0,0,60.12,185m0-16A60.13,60.13,0,1,1,0,229.16,60.13,60.13,0,0,1,60.12,169Z"/><path class="cls-2" d="M377.58,132.91A22.06,22.06,0,1,0,399.64,155a22.08,22.08,0,0,0-22.06-22.06m0-8A30.06,30.06,0,1,1,347.52,155a30.06,30.06,0,0,1,30.06-30.06Z"/><path class="cls-2" d="M209.3-5.41h0a30.8,30.8,0,0,1,30.81-30.81H425A30.8,30.8,0,0,1,455.77-5.41h0A30.81,30.81,0,0,1,425,25.4H240.11A30.81,30.81,0,0,1,209.3-5.41Z"/><path class="cls-2" d="M425,58.33H240.11a14.42,14.42,0,0,0,0,28.83H425a14.42,14.42,0,0,0,0-28.83m0-16.39a30.81,30.81,0,1,1,0,61.61H240.11a30.81,30.81,0,1,1,0-61.61Z"/><rect class="cls-2" x="53.66" y="-94.85" width="60.12" height="240.49" rx="30.06"/><path class="cls-2" d="M-209.3-5.41h0a30.8,30.8,0,0,1,30.81-30.81H6.36A30.8,30.8,0,0,1,37.17-5.41h0A30.81,30.81,0,0,1,6.36,25.4H-178.49A30.81,30.81,0,0,1-209.3-5.41Z"/><path class="cls-2" d="M6.36,58.33H-178.49A14.43,14.43,0,0,0-192.9,72.74a14.43,14.43,0,0,0,14.41,14.42H6.36a14.42,14.42,0,0,0,0-28.83m0-16.39a30.81,30.81,0,1,1,0,61.61H-178.49A30.8,30.8,0,0,1-209.3,72.74a30.8,30.8,0,0,1,30.81-30.8Z"/></pattern></defs><g id="Capa_2" data-name="Capa 2"><g id="Capa_1-2" data-name="Capa 1"><rect class="cls-3" width="5966.22" height="3254.3"/></g></g></svg>